<svg xmlns="http://www.w3.org/2000/svg" viewBox="0 0 64 64" fill="none">
  <rect x="4" y="8" width="56" height="48" rx="4" fill="#3D2814" stroke="#C8943E" stroke-width="2"/>
  <rect x="8" y="12" width="22" height="40" rx="2" fill="#5A3A1A"/>
  <rect x="34" y="12" width="22" height="40" rx="2" fill="#5A3A1A"/>
  <line x1="19" y1="12" x2="19" y2="52" stroke="#C8943E" stroke-width="1" opacity="0.5"/>
  <line x1="45" y1="12" x2="45" y2="52" stroke="#C8943E" stroke-width="1" opacity="0.5"/>
  <path d="M30 12 L32 8 L34 12" fill="#C8943E"/>
  <rect x="12" y="18" width="14" height="1.5" rx="0.75" fill="#C8943E" opacity="0.7"/>
  <rect x="12" y="22" width="14" height="1.5" rx="0.75" fill="#C8943E" opacity="0.5"/>
  <rect x="12" y="26" width="10" height="1.5" rx="0.75" fill="#C8943E" opacity="0.4"/>
  <rect x="38" y="18" width="14" height="1.5" rx="0.75" fill="#C8943E" opacity="0.7"/>
  <rect x="38" y="22" width="14" height="1.5" rx="0.75" fill="#C8943E" opacity="0.5"/>
  <rect x="38" y="26" width="10" height="1.5" rx="0.75" fill="#C8943E" opacity="0.4"/>
  <circle cx="32" cy="42" r="8" fill="none" stroke="#C8943E" stroke-width="1.5"/>
  <text x="32" y="46" text-anchor="middle" font-family="serif" font-size="10" font-weight="bold" fill="#C8943E">SL</text>
</svg>
